#N canvas 738 167 514 508 10;
#X obj 69 26 loadbang;
#X floatatom 110 128 5 0 0 0 - - -;
#X floatatom 110 154 5 0 0 0 - - -;
#X floatatom 111 180 5 0 0 0 - - -;
#X obj 304 136 f 60;
#X obj 304 212 /;
#X obj 304 253 *;
#X obj 304 297 *;
#X obj 261 164 f 120;
#X obj 263 220 f 4;
#X obj 262 247 f 4;
#X obj 188 53 t b b b b b;
#X obj 289 340 /;
#X obj 248 299 f 1;
#X obj 219 380 outlet;
#X text 147 127 <-- BPM;
#X text 147 153 <-- Beats/Bar;
#X text 147 180 <-- # of Bars;
#X msg 184 13 bang;
#X obj 132 254 t b f;
#X obj 129 285 t b f;
#X obj 128 317 t b f;
#X text 70 431 BPM Clock Calculator By James Nichols - 2/12/08;
#X obj 335 33 inlet;
#X obj 376 33 inlet;
#X obj 419 33 inlet;
#X connect 0 0 11 0;
#X connect 1 0 19 0;
#X connect 2 0 20 0;
#X connect 3 0 21 0;
#X connect 4 0 5 0;
#X connect 5 0 6 0;
#X connect 6 0 7 0;
#X connect 7 0 12 1;
#X connect 8 0 5 1;
#X connect 9 0 6 1;
#X connect 10 0 7 1;
#X connect 11 0 13 0;
#X connect 11 1 4 0;
#X connect 11 2 10 0;
#X connect 11 3 9 0;
#X connect 11 4 8 0;
#X connect 12 0 14 0;
#X connect 13 0 12 0;
#X connect 18 0 11 0;
#X connect 19 0 18 0;
#X connect 19 1 8 1;
#X connect 20 0 18 0;
#X connect 20 1 9 1;
#X connect 21 0 18 0;
#X connect 21 1 10 1;
#X connect 23 0 1 0;
#X connect 24 0 2 0;
#X connect 25 0 3 0;
#X coords 0 -1 1 1 140 110 1 100 100;
