#N canvas 597 161 843 568 10;
#X obj 54 32 inlet~;
#X obj 115 32 inlet~;
#X obj 293 28 inlet;
#X obj 45 467 outlet~;
#X obj 130 467 outlet~;
#X msg 231 105 1;
#X msg 189 105 0;
#X obj 60 177 StereoABSwitch~;
#X text 96 505 Digitiser Profiler for the DubTable - By James Nichols
24/02/09;
#X obj 157 238 StereoDecimateSwitch~;
#X obj 260 59 moses 0.15;
#X obj 288 147 expr ($f1 - 0.15) / 0.85;
#X connect 0 0 7 0;
#X connect 1 0 7 1;
#X connect 2 0 10 0;
#X connect 5 0 7 2;
#X connect 5 0 9 2;
#X connect 6 0 7 2;
#X connect 6 0 9 2;
#X connect 7 0 3 0;
#X connect 7 1 4 0;
#X connect 7 2 9 0;
#X connect 7 3 9 1;
#X connect 9 0 3 0;
#X connect 9 1 4 0;
#X connect 10 0 6 0;
#X connect 10 1 5 0;
#X connect 10 1 11 0;
#X connect 11 0 9 3;
