#N canvas 77 103 1329 599 10;
#X msg 711 35 \; pd dsp 1;
#X msg 711 67 \; pd dsp 0;
#X obj 465 505 dac~;
#X obj 737 124 TuioClient;
#X obj 294 -33 loadbang;
#X msg 356 -34 bang;
#X msg 238 85 0;
#N canvas 100 206 961 558 DrumsBus 0;
#X obj 120 69 inlet~;
#X obj 246 516 outlet~;
#X obj 379 515 outlet~;
#X obj 611 63 inlet;
#X obj 580 516 outlet~;
#X obj 666 517 outlet~;
#X obj 23 222 TuioLooper~ 0 newloops/morrowDrums.wav 10000 10000;
#X text 117 38 16 Bar inlet;
#X obj 74 307 TuioLooper~ 1 newloops/badmanDrums.wav 10000 10000;
#X obj 137 370 TuioLooper~ 2 newloops/skatalitesDrums.wav 10000 10000
;
#X obj 474 166 TuioLooper~ 3 newloops/SkaDrums.wav 10000 10000;
#X obj 525 251 TuioLooper~ 4 newloops/StoneyDrums.wav 10000 10000;
#X obj 587 314 TuioLooper~ 5 newloops/DescendingDrums.wav 10000 10000
;
#X obj 210 70 inlet~;
#X obj 317 75 inlet~;
#X text 213 39 32 Bar;
#X text 311 41 48 bar;
#X connect 0 0 6 0;
#X connect 0 0 9 0;
#X connect 3 0 6 1;
#X connect 3 0 8 1;
#X connect 3 0 9 1;
#X connect 3 0 10 1;
#X connect 3 0 11 1;
#X connect 3 0 12 1;
#X connect 6 0 1 0;
#X connect 6 1 2 0;
#X connect 6 2 4 0;
#X connect 6 3 5 0;
#X connect 8 0 1 0;
#X connect 8 1 2 0;
#X connect 8 2 4 0;
#X connect 8 3 5 0;
#X connect 9 0 1 0;
#X connect 9 1 2 0;
#X connect 9 2 4 0;
#X connect 9 3 5 0;
#X connect 10 0 1 0;
#X connect 10 1 2 0;
#X connect 10 2 4 0;
#X connect 10 3 5 0;
#X connect 11 0 1 0;
#X connect 11 1 2 0;
#X connect 11 2 4 0;
#X connect 11 3 5 0;
#X connect 12 0 1 0;
#X connect 12 1 2 0;
#X connect 12 2 4 0;
#X connect 12 3 5 0;
#X connect 13 0 10 0;
#X connect 13 0 12 0;
#X connect 13 0 8 0;
#X connect 14 0 11 0;
#X restore 130 292 pd DrumsBus;
#N canvas 114 272 794 574 BassBus 0;
#X obj 206 523 outlet~;
#X obj 280 521 outlet~;
#X obj 149 99 inlet~;
#X obj 202 98 inlet~;
#X obj 86 98 inlet~;
#X obj 569 94 inlet;
#X obj 431 521 outlet~;
#X obj 507 522 outlet~;
#X text 78 70 16 Bar;
#X text 205 74 48 Bar;
#X text 145 75 32 Bar;
#X obj 52 220 TuioBassLooper~ 6 newloops/morrowBass.wav 1000 5000;
#X obj 53 262 TuioBassLooper~ 7 newloops/badmanBass.wav 1000 5000;
#X obj 59 301 TuioBassLooper~ 8 newloops/skatalitesBass.wav 1000 5000
;
#X obj 99 392 TuioBassLooper~ 9 newloops/SkaBass.wav 1000 5000;
#X obj 367 211 TuioBassLooper~ 10 newloops/StoneyBass.wav 1000 5000
;
#X obj 385 255 TuioBassLooper~ 11 newloops/DescendingBass.wav 1000
5000;
#X connect 2 0 14 0;
#X connect 2 0 16 0;
#X connect 2 0 12 0;
#X connect 3 0 15 0;
#X connect 4 0 11 0;
#X connect 4 0 13 0;
#X connect 5 0 11 1;
#X connect 5 0 12 1;
#X connect 5 0 13 1;
#X connect 5 0 14 1;
#X connect 5 0 15 1;
#X connect 5 0 16 1;
#X connect 11 0 0 0;
#X connect 11 1 1 0;
#X connect 11 2 6 0;
#X connect 11 3 7 0;
#X connect 12 0 0 0;
#X connect 12 1 1 0;
#X connect 12 2 6 0;
#X connect 12 3 7 0;
#X connect 13 0 0 0;
#X connect 13 1 1 0;
#X connect 13 2 6 0;
#X connect 13 3 7 0;
#X connect 14 0 0 0;
#X connect 14 1 1 0;
#X connect 14 2 6 0;
#X connect 14 3 7 0;
#X connect 15 0 0 0;
#X connect 15 1 1 0;
#X connect 15 2 6 0;
#X connect 15 3 7 0;
#X connect 16 0 0 0;
#X connect 16 1 1 0;
#X connect 16 2 6 0;
#X connect 16 3 7 0;
#X restore 286 287 pd BassBus;
#X obj 373 94 bng 15 250 50 0 empty empty empty 17 7 0 10 -262144 -1
-1;
#X obj 346 -11 t b b b b b;
#X obj 234 40 metro 10;
#X floatatom 414 87 10 0 0 0 - - -;
#N canvas 542 111 898 712 GuitarBus 0;
#X obj 140 107 inlet~;
#X obj 135 568 outlet~;
#X obj 223 574 outlet~;
#X obj 63 111 inlet~;
#X obj 566 96 inlet;
#X obj 446 566 outlet~;
#X obj 532 569 outlet~;
#X obj 18 227 TuioLooper~ 12 newloops/morrowGuitar.wav 5000 5000;
#X obj 47 282 TuioLooper~ 13 newloops/badmanGuitar.wav 5000 5000;
#X obj 74 332 TuioLooper~ 14 newloops/skatalitesGuitar.wav 5000 5000
;
#X obj 104 397 TuioLooper~ 15 newloops/SkaGuitar.wav 5000 5000;
#X obj 407 237 TuioLooper~ 16 newloops/StoneyGuitar.wav 5000 5000;
#X obj 459 286 TuioLooper~ 17 newloops/DescendingGuitar.wav 5000 5000
;
#X obj 214 107 inlet~;
#X text 50 84 16 Bar;
#X text 129 80 32 Bar;
#X text 207 78 48 Bar;
#X connect 0 0 10 0;
#X connect 0 0 12 0;
#X connect 0 0 8 0;
#X connect 3 0 7 0;
#X connect 3 0 9 0;
#X connect 4 0 7 1;
#X connect 4 0 8 1;
#X connect 4 0 9 1;
#X connect 4 0 10 1;
#X connect 4 0 11 1;
#X connect 4 0 12 1;
#X connect 7 0 1 0;
#X connect 7 1 2 0;
#X connect 7 2 5 0;
#X connect 7 3 6 0;
#X connect 8 0 1 0;
#X connect 8 1 2 0;
#X connect 8 2 5 0;
#X connect 8 3 6 0;
#X connect 9 0 1 0;
#X connect 9 1 2 0;
#X connect 9 2 5 0;
#X connect 9 3 6 0;
#X connect 10 0 1 0;
#X connect 10 1 2 0;
#X connect 10 2 5 0;
#X connect 10 3 6 0;
#X connect 11 0 1 0;
#X connect 11 1 2 0;
#X connect 11 2 5 0;
#X connect 11 3 6 0;
#X connect 12 0 1 0;
#X connect 12 1 2 0;
#X connect 12 2 5 0;
#X connect 12 3 6 0;
#X connect 13 0 11 0;
#X restore 422 272 pd GuitarBus;
#N canvas 563 142 877 693 KeysBus 1;
#X obj 104 90 inlet~;
#X obj 135 568 outlet~;
#X obj 223 574 outlet~;
#X obj 49 89 inlet~;
#X obj 566 96 inlet;
#X obj 446 566 outlet~;
#X obj 532 569 outlet~;
#X obj 18 227 TuioLooper~ 18 newloops/morrowKeys.wav 2000 2000;
#X obj 47 282 TuioLooper~ 19 newloops/badmanKeys.wav 2000 2000;
#X obj 82 339 TuioLooper~ 20 newloops/skatalitesKeys.wav 2000 2000
;
#X obj 417 273 TuioLooper~ 21 newloops/SkaKeys.wav 2000 2000;
#X obj 424 315 TuioLooper~ 22 newloops/StoneyKeys.wav 2000 2000;
#X obj 433 371 TuioLooper~ 23 newloops/DescendingKeys.wav 2000 2000
;
#X obj 196 94 inlet~;
#X text 22 57 16 Bar;
#X text 113 57 32 Bar;
#X text 191 63 48 Bar;
#X connect 0 0 10 0;
#X connect 0 0 12 0;
#X connect 0 0 8 0;
#X connect 3 0 7 0;
#X connect 3 0 9 0;
#X connect 4 0 7 1;
#X connect 4 0 8 1;
#X connect 4 0 9 1;
#X connect 4 0 10 1;
#X connect 4 0 11 1;
#X connect 4 0 12 1;
#X connect 7 0 1 0;
#X connect 7 1 2 0;
#X connect 7 2 5 0;
#X connect 7 3 6 0;
#X connect 8 0 1 0;
#X connect 8 1 2 0;
#X connect 8 2 5 0;
#X connect 8 3 6 0;
#X connect 9 0 1 0;
#X connect 9 1 2 0;
#X connect 9 2 5 0;
#X connect 9 3 6 0;
#X connect 10 0 1 0;
#X connect 10 1 2 0;
#X connect 10 2 5 0;
#X connect 10 3 6 0;
#X connect 11 0 1 0;
#X connect 11 1 2 0;
#X connect 11 2 5 0;
#X connect 11 3 6 0;
#X connect 12 0 1 0;
#X connect 12 1 2 0;
#X connect 12 2 5 0;
#X connect 12 3 6 0;
#X connect 13 0 11 0;
#X restore 563 279 pd KeysBus;
#N canvas 0 22 869 720 VocalsBus 0;
#X obj 135 568 outlet~;
#X obj 223 574 outlet~;
#X obj 254 32 inlet;
#X obj 446 566 outlet~;
#X obj 532 569 outlet~;
#X obj 78 177 TuioSampler~ 24 samples/bombaclot_norm.wav 5000 5000
;
#X obj 102 238 TuioSampler~ 25 samples/boogaloo_norm.wav 5000 5000
;
#X obj 144 300 TuioSampler~ 26 samples/now_hear_this_norm.wav 5000
5000;
#X obj 263 374 TuioSampler~ 27 samples/positive_vibes_norm.wav 5000
5000;
#X obj 322 416 TuioSampler~ 28 samples/rundatrack_norm.wav 5000 5000
;
#X obj 495 72 inlet~;
#X obj 529 191 TuioLooper~ 33 newloops/badmanVocals.wav 5000 5000;
#X connect 2 0 5 0;
#X connect 2 0 6 0;
#X connect 2 0 7 0;
#X connect 2 0 8 0;
#X connect 2 0 9 0;
#X connect 2 0 11 1;
#X connect 5 0 0 0;
#X connect 5 1 1 0;
#X connect 5 2 3 0;
#X connect 5 3 4 0;
#X connect 6 0 0 0;
#X connect 6 1 1 0;
#X connect 6 2 3 0;
#X connect 6 3 4 0;
#X connect 7 0 0 0;
#X connect 7 1 1 0;
#X connect 7 2 3 0;
#X connect 7 3 4 0;
#X connect 8 0 0 0;
#X connect 8 1 1 0;
#X connect 8 2 3 0;
#X connect 8 3 4 0;
#X connect 9 0 0 0;
#X connect 9 1 1 0;
#X connect 9 2 3 0;
#X connect 9 3 4 0;
#X connect 10 0 11 0;
#X connect 11 0 0 0;
#X connect 11 1 1 0;
#X connect 11 2 3 0;
#X connect 11 3 4 0;
#X restore 787 278 pd VocalsBus;
#X obj 151 350 TuioTapeDelay~ 29;
#X obj 1033 277 TuioScaleMadness~ 36;
#X obj 313 334 TuioTapeDelay~ 30;
#X obj 1116 395 TuioTapeDelay~ 37;
#X obj 446 333 TuioTapeDelay~ 31;
#X obj 576 326 TuioTapeDelay~ 32;
#X obj 832 322 TuioTapeDelay~ 34;
#X obj 1188 293 TuioNoise~ 35;
#X obj 1063 -12 TuioMadness~ 29;
#X obj 1063 14 TuioMadnessRhythm~ 30;
#X obj 1030 199 mute~;
#X obj 1147 213 mute~;
#X obj 1060 40 TuioNoiseRhythm~ 31;
#X obj 866 32 tgl 50 0 empty empty empty 17 7 0 10 -262144 -1 -1 0
1;
#X obj 1158 58 TuioMadness~ 32;
#X obj 1158 84 TuioMadnessRhythm~ 33;
#X obj 1155 110 TuioNoiseRhythm~ 34;
#X obj 384 48 expr 4 * 96 * 1000 * 2/3;
#X obj 53 145 LoopRamp~ 146 4 16;
#X obj 52 167 LoopRamp~ 146 4 8;
#X obj 186 147 LoopRamp~ 146 4 32;
#X obj 191 167 LoopRamp~ 146 4 16;
#X obj 313 148 LoopRamp~ 146 4 48;
#X obj 310 168 LoopRamp~ 146 4 24;
#X obj 189 192 ABInputSwitch~;
#X obj 310 191 ABInputSwitch~;
#X obj 59 193 ABInputSwitch~;
#X obj 495 130 TuioSwitch 36;
#X obj 595 501 *~ 2;
#X obj 636 502 *~ 2;
#X obj 741 497 dac~;
#X connect 3 0 13 3;
#X connect 3 0 8 3;
#X connect 3 0 14 3;
#X connect 3 0 15 0;
#X connect 3 0 16 2;
#X connect 3 0 18 2;
#X connect 3 0 19 2;
#X connect 3 0 20 2;
#X connect 3 0 21 2;
#X connect 3 0 22 2;
#X connect 3 0 23 0;
#X connect 3 0 24 0;
#X connect 3 0 25 0;
#X connect 3 0 28 0;
#X connect 3 0 30 0;
#X connect 3 0 31 0;
#X connect 3 0 32 0;
#X connect 3 0 7 3;
#X connect 3 0 43 0;
#X connect 4 0 10 0;
#X connect 5 0 10 0;
#X connect 6 0 35 0;
#X connect 6 0 36 0;
#X connect 6 0 39 0;
#X connect 6 0 37 0;
#X connect 6 0 38 0;
#X connect 6 0 34 0;
#X connect 7 0 2 0;
#X connect 7 1 2 1;
#X connect 7 2 16 0;
#X connect 7 3 16 1;
#X connect 8 0 2 0;
#X connect 8 1 2 1;
#X connect 8 2 18 0;
#X connect 8 3 18 1;
#X connect 10 0 0 0;
#X connect 10 1 11 0;
#X connect 10 2 33 0;
#X connect 11 0 9 0;
#X connect 11 0 6 0;
#X connect 13 0 2 0;
#X connect 13 1 2 1;
#X connect 13 2 20 0;
#X connect 13 3 20 1;
#X connect 14 0 2 0;
#X connect 14 1 2 1;
#X connect 14 2 21 0;
#X connect 14 3 21 1;
#X connect 15 0 2 0;
#X connect 15 1 2 1;
#X connect 15 2 22 0;
#X connect 15 3 22 1;
#X connect 16 0 2 0;
#X connect 16 0 44 0;
#X connect 16 1 2 1;
#X connect 17 0 2 0;
#X connect 17 1 2 1;
#X connect 17 2 19 0;
#X connect 17 3 19 1;
#X connect 18 0 2 0;
#X connect 18 0 44 0;
#X connect 18 1 2 1;
#X connect 19 0 2 0;
#X connect 19 0 44 0;
#X connect 19 1 2 1;
#X connect 20 0 2 0;
#X connect 20 0 44 0;
#X connect 20 1 2 1;
#X connect 21 0 2 0;
#X connect 21 0 44 0;
#X connect 21 1 2 1;
#X connect 22 0 2 0;
#X connect 22 0 44 0;
#X connect 22 1 2 1;
#X connect 23 0 2 0;
#X connect 23 1 2 1;
#X connect 23 2 19 0;
#X connect 23 3 19 1;
#X connect 24 0 26 0;
#X connect 24 1 26 1;
#X connect 24 2 27 0;
#X connect 24 3 27 1;
#X connect 25 0 26 0;
#X connect 25 1 26 1;
#X connect 25 2 27 0;
#X connect 25 3 27 1;
#X connect 26 0 2 0;
#X connect 26 1 2 1;
#X connect 27 0 19 0;
#X connect 27 1 19 1;
#X connect 28 0 26 0;
#X connect 28 1 26 1;
#X connect 28 2 27 0;
#X connect 28 3 27 1;
#X connect 29 0 26 2;
#X connect 29 0 27 2;
#X connect 30 0 26 0;
#X connect 30 1 26 1;
#X connect 31 0 26 0;
#X connect 31 1 26 1;
#X connect 32 0 26 0;
#X connect 32 1 26 1;
#X connect 33 0 11 1;
#X connect 33 0 12 0;
#X connect 34 0 42 0;
#X connect 35 0 42 1;
#X connect 36 0 40 0;
#X connect 37 0 40 1;
#X connect 38 0 41 0;
#X connect 39 0 41 1;
#X connect 40 0 7 1;
#X connect 40 0 8 1;
#X connect 40 0 13 1;
#X connect 40 0 14 1;
#X connect 41 0 7 2;
#X connect 41 0 8 2;
#X connect 41 0 13 2;
#X connect 41 0 14 2;
#X connect 42 0 7 0;
#X connect 42 0 8 0;
#X connect 42 0 13 0;
#X connect 42 0 14 0;
#X connect 43 0 41 2;
#X connect 43 0 40 2;
#X connect 43 0 42 2;
#X connect 44 0 46 1;
