#N canvas 26 36 1329 599 10;
#X msg 711 35 \; pd dsp 1;
#X msg 711 67 \; pd dsp 0;
#X obj 465 505 dac~;
#X obj 737 124 TuioClient;
#X obj 294 -33 loadbang;
#X msg 356 -34 bang;
#X msg 238 85 0;
#N canvas 0 22 961 558 DrumsBus 0;
#X obj 120 69 inlet~;
#X obj 362 71 inlet~;
#X obj 246 516 outlet~;
#X obj 379 515 outlet~;
#X obj 610 77 inlet;
#X text 117 38 4 Bar inlet;
#X text 346 39 8 Bar inlet;
#X obj 580 516 outlet~;
#X obj 666 517 outlet~;
#X obj 50 222 TuioLooper~ 0 loops/Drums/Slow4Bar.aif 10000 10000;
#X obj 101 307 TuioLooper~ 1 loops/Drums/Good8Bar.aif 10000 10000;
#X obj 164 370 TuioLooper~ 2 loops/Drums/Hats4Bar.aif 10000 10000;
#X obj 206 448 TuioLooper~ 3 loops/Drums/Rolling8Bar.aif 10000 10000
;
#X obj 359 215 TuioLooper~ 4 loops/Drums/Reggaeton8Bar.aif 10000 10000
;
#X obj 468 281 TuioLooper~ 5 loops/Drums/Jungle4Bar.aif 10000 10000
;
#X connect 0 0 9 0;
#X connect 0 0 11 0;
#X connect 0 0 14 0;
#X connect 1 0 10 0;
#X connect 1 0 12 0;
#X connect 1 0 13 0;
#X connect 4 0 9 1;
#X connect 4 0 10 1;
#X connect 4 0 11 1;
#X connect 4 0 12 1;
#X connect 4 0 13 1;
#X connect 4 0 14 1;
#X connect 9 0 2 0;
#X connect 9 1 3 0;
#X connect 9 2 7 0;
#X connect 9 3 8 0;
#X connect 10 0 2 0;
#X connect 10 1 3 0;
#X connect 10 2 7 0;
#X connect 10 3 8 0;
#X connect 11 0 2 0;
#X connect 11 1 3 0;
#X connect 11 2 7 0;
#X connect 11 3 8 0;
#X connect 12 0 2 0;
#X connect 12 1 3 0;
#X connect 12 2 7 0;
#X connect 12 3 8 0;
#X connect 13 0 2 0;
#X connect 13 1 3 0;
#X connect 13 2 7 0;
#X connect 13 3 8 0;
#X connect 14 0 2 0;
#X connect 14 1 3 0;
#X connect 14 2 7 0;
#X connect 14 3 8 0;
#X restore 130 292 pd DrumsBus;
#N canvas 626 39 794 574 BassBus 0;
#X obj 206 523 outlet~;
#X obj 280 521 outlet~;
#X text 139 53 12 Bar inlet;
#X text 234 52 16 Bar inlet;
#X text 60 57 8 Bar inlet;
#X obj 89 98 inlet~;
#X obj 166 101 inlet~;
#X obj 251 101 inlet~;
#X obj 569 94 inlet;
#X obj 431 521 outlet~;
#X obj 507 522 outlet~;
#X obj 53 262 TuioLooper~ 7 loops/Bass/Good8Bar.aif 1000 5000;
#X obj 59 301 TuioLooper~ 8 loops/Bass/Hats8Bar.aif 1000 5000;
#X obj 99 392 TuioLooper~ 9 loops/Bass/Rolling16Bar.aif 1000 5000;
#X obj 367 211 TuioLooper~ 10 loops/Bass/Reggaeton8Bar.aif 1000 5000
;
#X obj 385 255 TuioLooper~ 11 loops/Bass/Jungle16Bar.aif 1000 5000
;
#X obj 52 220 TuioLooper~ 6 loops/Bass/Slow8Bar.aif 1000 5000;
#X connect 5 0 11 0;
#X connect 5 0 12 0;
#X connect 5 0 14 0;
#X connect 5 0 16 0;
#X connect 7 0 13 0;
#X connect 7 0 15 0;
#X connect 8 0 11 1;
#X connect 8 0 12 1;
#X connect 8 0 13 1;
#X connect 8 0 14 1;
#X connect 8 0 15 1;
#X connect 8 0 16 1;
#X connect 11 0 0 0;
#X connect 11 1 1 0;
#X connect 11 2 9 0;
#X connect 11 3 10 0;
#X connect 12 0 0 0;
#X connect 12 1 1 0;
#X connect 12 2 9 0;
#X connect 12 3 10 0;
#X connect 13 0 0 0;
#X connect 13 1 1 0;
#X connect 13 2 9 0;
#X connect 13 3 10 0;
#X connect 14 0 0 0;
#X connect 14 1 1 0;
#X connect 14 2 9 0;
#X connect 14 3 10 0;
#X connect 15 0 0 0;
#X connect 15 1 1 0;
#X connect 15 2 9 0;
#X connect 15 3 10 0;
#X connect 16 0 0 0;
#X connect 16 1 1 0;
#X connect 16 2 9 0;
#X connect 16 3 10 0;
#X restore 286 287 pd BassBus;
#X obj 292 132 LoopRamp~ 90 4 8;
#X obj 421 131 LoopRamp~ 90 4 16;
#X obj 164 134 LoopRamp~ 90 4 4;
#X obj 373 94 bng 15 250 50 0 empty empty empty 17 7 0 10 -262144 -1
-1;
#X obj 346 -11 t b b b b b;
#X obj 234 40 metro 10;
#X floatatom 414 87 10 0 0 0 - - -;
#N canvas 542 111 898 712 GuitarBus 0;
#X obj 104 90 inlet~;
#X obj 135 568 outlet~;
#X obj 223 574 outlet~;
#X text 170 73 16 Bar inlet;
#X obj 280 97 inlet~;
#X text 82 63 8 Bar Inlet;
#X obj 566 96 inlet;
#X obj 446 566 outlet~;
#X obj 532 569 outlet~;
#X obj 18 227 TuioLooper~ 12 loops/Guitar/Slow8Bar.aif 5000 5000;
#X obj 47 282 TuioLooper~ 13 loops/Guitar/Good8Bar.aif 5000 5000;
#X obj 74 332 TuioLooper~ 14 loops/Guitar/Hats8Bar.aif 5000 5000;
#X obj 104 397 TuioLooper~ 15 loops/Guitar/Rolling16Bar.aif 5000 5000
;
#X obj 407 237 TuioLooper~ 16 loops/Guitar/Reggaeton8Bar.aif 5000 5000
;
#X obj 459 286 TuioLooper~ 17 loops/Guitar/Jungle16Bar.aif 5000 5000
;
#X connect 0 0 9 0;
#X connect 0 0 10 0;
#X connect 0 0 11 0;
#X connect 0 0 13 0;
#X connect 4 0 12 0;
#X connect 4 0 14 0;
#X connect 6 0 9 1;
#X connect 6 0 10 1;
#X connect 6 0 11 1;
#X connect 6 0 12 1;
#X connect 6 0 13 1;
#X connect 6 0 14 1;
#X connect 9 0 1 0;
#X connect 9 1 2 0;
#X connect 9 2 7 0;
#X connect 9 3 8 0;
#X connect 10 0 1 0;
#X connect 10 1 2 0;
#X connect 10 2 7 0;
#X connect 10 3 8 0;
#X connect 11 0 1 0;
#X connect 11 1 2 0;
#X connect 11 2 7 0;
#X connect 11 3 8 0;
#X connect 12 0 1 0;
#X connect 12 1 2 0;
#X connect 12 2 7 0;
#X connect 12 3 8 0;
#X connect 13 0 1 0;
#X connect 13 1 2 0;
#X connect 13 2 7 0;
#X connect 13 3 8 0;
#X connect 14 0 1 0;
#X connect 14 1 2 0;
#X connect 14 2 7 0;
#X connect 14 3 8 0;
#X restore 422 272 pd GuitarBus;
#X obj 384 48 expr 4 * 16 * 1000 * 2/3;
#N canvas 476 136 877 693 KeysBus 0;
#X obj 104 90 inlet~;
#X obj 135 568 outlet~;
#X obj 223 574 outlet~;
#X text 235 67 16 Bar inlet;
#X obj 280 97 inlet~;
#X text 82 63 8 Bar Inlet;
#X obj 566 96 inlet;
#X obj 446 566 outlet~;
#X obj 532 569 outlet~;
#X obj 18 227 TuioLooper~ 18 loops/Keys/Slow8Bar.aif 2000 2000;
#X obj 47 282 TuioLooper~ 19 loops/Keys/Good8Bar.aif 2000 2000;
#X obj 409 231 TuioLooper~ 20 loops/Keys/Reggaeton16Bar.aif 2000 2000
;
#X obj 418 287 TuioLooper~ 21 loops/Keys/Jungle16Bar.aif 2000 2000
;
#X connect 0 0 9 0;
#X connect 0 0 10 0;
#X connect 4 0 11 0;
#X connect 4 0 12 0;
#X connect 6 0 9 1;
#X connect 6 0 10 1;
#X connect 6 0 11 1;
#X connect 6 0 12 1;
#X connect 9 0 1 0;
#X connect 9 1 2 0;
#X connect 9 2 7 0;
#X connect 9 3 8 0;
#X connect 10 0 1 0;
#X connect 10 1 2 0;
#X connect 10 2 7 0;
#X connect 10 3 8 0;
#X connect 11 0 1 0;
#X connect 11 1 2 0;
#X connect 11 2 7 0;
#X connect 11 3 8 0;
#X connect 12 0 1 0;
#X connect 12 1 2 0;
#X connect 12 2 7 0;
#X connect 12 3 8 0;
#X restore 563 279 pd KeysBus;
#N canvas 0 22 869 720 VocalsBus 0;
#X obj 104 90 inlet~;
#X obj 135 568 outlet~;
#X obj 223 574 outlet~;
#X text 235 67 16 Bar inlet;
#X obj 280 97 inlet~;
#X text 82 63 8 Bar Inlet;
#X obj 566 96 inlet;
#X obj 446 566 outlet~;
#X obj 532 569 outlet~;
#X obj 431 233 TuioLooper~ 28 loops/Vocals/Reggaeton16Bar.aif 5000
5000;
#X obj 86 447 TuioLooper~ 27 loops/Vocals/Rolling16Bar.aif 5000 5000
;
#X obj 81 377 TuioLooper~ 26 loops/Vocals/Hats16Bar.aif 5000 5000;
#X obj 50 304 TuioLooper~ 25 loops/Vocals/Good8Bar.aif 5000 5000;
#X connect 0 0 12 0;
#X connect 4 0 9 0;
#X connect 4 0 10 0;
#X connect 4 0 11 0;
#X connect 6 0 9 1;
#X connect 6 0 10 1;
#X connect 6 0 11 1;
#X connect 6 0 12 1;
#X connect 9 0 1 0;
#X connect 9 1 2 0;
#X connect 9 2 7 0;
#X connect 9 3 8 0;
#X connect 10 0 1 0;
#X connect 10 1 2 0;
#X connect 10 2 7 0;
#X connect 10 3 8 0;
#X connect 11 0 1 0;
#X connect 11 1 2 0;
#X connect 11 2 7 0;
#X connect 11 3 8 0;
#X connect 12 0 1 0;
#X connect 12 1 2 0;
#X connect 12 2 7 0;
#X connect 12 3 8 0;
#X restore 787 278 pd VocalsBus;
#N canvas 588 94 852 638 HornsBus 0;
#X obj 104 90 inlet~;
#X obj 135 568 outlet~;
#X obj 223 574 outlet~;
#X text 235 67 16 Bar inlet;
#X obj 280 97 inlet~;
#X text 82 63 8 Bar Inlet;
#X obj 566 96 inlet;
#X obj 446 566 outlet~;
#X obj 532 569 outlet~;
#X obj 16 227 TuioLooper~ 22 loops/Horns/Slow8Bar.aif 5000 5000;
#X obj 51 327 TuioLooper~ 23 loops/Horns/Hats16Bar.aif 5000 5000;
#X obj 91 396 TuioLooper~ 24 loops/Horns/Rolling16Bar.aif 5000 5000
;
#X connect 0 0 9 0;
#X connect 4 0 10 0;
#X connect 4 0 11 0;
#X connect 6 0 9 1;
#X connect 6 0 10 1;
#X connect 6 0 11 1;
#X connect 9 0 1 0;
#X connect 9 1 2 0;
#X connect 9 2 7 0;
#X connect 9 3 8 0;
#X connect 10 0 1 0;
#X connect 10 1 2 0;
#X connect 10 2 7 0;
#X connect 10 3 8 0;
#X connect 11 0 1 0;
#X connect 11 1 2 0;
#X connect 11 2 7 0;
#X connect 11 3 8 0;
#X restore 695 280 pd HornsBus;
#X obj 151 350 TuioTapeDelay~ 29;
#X obj 1033 277 TuioScaleMadness~ 36;
#X obj 313 334 TuioTapeDelay~ 30;
#X obj 1116 395 TuioTapeDelay~ 37;
#X obj 446 333 TuioTapeDelay~ 31;
#X obj 576 326 TuioTapeDelay~ 32;
#X obj 700 327 TuioTapeDelay~ 33;
#X obj 832 322 TuioTapeDelay~ 34;
#X obj 1188 293 TuioNoise~ 35;
#X connect 3 0 7 2;
#X connect 3 0 16 2;
#X connect 3 0 8 3;
#X connect 3 0 18 2;
#X connect 3 0 20 2;
#X connect 3 0 19 2;
#X connect 3 0 21 2;
#X connect 3 0 22 0;
#X connect 3 0 23 2;
#X connect 3 0 24 2;
#X connect 3 0 25 2;
#X connect 3 0 26 2;
#X connect 3 0 27 2;
#X connect 3 0 28 2;
#X connect 3 0 29 0;
#X connect 4 0 13 0;
#X connect 5 0 13 0;
#X connect 6 0 9 0;
#X connect 6 0 10 0;
#X connect 6 0 11 0;
#X connect 7 0 2 0;
#X connect 7 1 2 1;
#X connect 7 2 21 0;
#X connect 7 3 21 1;
#X connect 8 0 2 0;
#X connect 8 1 2 1;
#X connect 8 2 23 0;
#X connect 8 3 23 1;
#X connect 9 0 7 1;
#X connect 9 0 16 0;
#X connect 9 0 8 0;
#X connect 9 0 18 0;
#X connect 9 0 20 0;
#X connect 9 0 19 0;
#X connect 10 0 16 1;
#X connect 10 0 8 2;
#X connect 10 0 18 1;
#X connect 10 0 20 1;
#X connect 10 0 19 1;
#X connect 11 0 7 0;
#X connect 13 0 0 0;
#X connect 13 1 14 0;
#X connect 13 2 17 0;
#X connect 14 0 12 0;
#X connect 14 0 6 0;
#X connect 16 0 2 0;
#X connect 16 1 2 1;
#X connect 16 2 25 0;
#X connect 16 3 25 1;
#X connect 17 0 14 1;
#X connect 17 0 15 0;
#X connect 18 0 2 0;
#X connect 18 1 2 1;
#X connect 18 2 26 0;
#X connect 18 3 26 1;
#X connect 19 0 2 0;
#X connect 19 1 2 1;
#X connect 19 2 28 0;
#X connect 19 3 28 1;
#X connect 20 0 2 0;
#X connect 20 1 2 1;
#X connect 20 2 27 0;
#X connect 20 3 27 1;
#X connect 21 0 2 0;
#X connect 21 1 2 1;
#X connect 22 0 2 0;
#X connect 22 1 2 1;
#X connect 22 2 24 0;
#X connect 22 3 24 1;
#X connect 23 0 2 0;
#X connect 23 1 2 1;
#X connect 24 0 2 0;
#X connect 24 1 2 1;
#X connect 25 0 2 0;
#X connect 25 1 2 1;
#X connect 26 0 2 0;
#X connect 26 1 2 1;
#X connect 27 0 2 0;
#X connect 27 1 2 1;
#X connect 28 0 2 0;
#X connect 28 1 2 1;
#X connect 29 0 2 0;
#X connect 29 1 2 1;
#X connect 29 2 24 0;
#X connect 29 3 24 1;
