#N canvas 560 267 420 351 10;
#X obj 127 77 ClockFreq;
#X obj 127 204 phasor~;
#X obj 127 251 outlet~;
#X obj 174 -18 loadbang;
#X obj 127 45 f \$1;
#X obj 260 46 f \$3;
#X obj 193 46 f \$2;
#X obj 174 11 t b b b;
#X obj 304 6 inlet;
#X msg 304 178 0;
#X floatatom 59 203 10 0 0 0 - - -;
#X connect 0 0 1 0;
#X connect 0 0 10 0;
#X connect 1 0 2 0;
#X connect 3 0 7 0;
#X connect 4 0 0 0;
#X connect 5 0 0 2;
#X connect 6 0 0 1;
#X connect 7 0 5 0;
#X connect 7 1 6 0;
#X connect 7 2 4 0;
#X connect 8 0 9 0;
#X connect 9 0 1 1;
