#N canvas 93 85 1335 668 10;
#X msg 339 80 \; pd dsp 1;
#X msg 339 112 \; pd dsp 0;
#X obj 465 505 dac~;
#X obj 511 86 TuioClient;
#X obj 275 -4 loadbang;
#X msg 331 -4 bang;
#X msg 238 85 0;
#X obj 58 216 TuioLooper~ 0 loops/Mash/Gabba.wav 10000 10000;
#X obj 132 249 TuioLooper~ 1 loops/Mash/HipHop.wav 10000 10000;
#X obj 182 285 TuioLooper~ 2 loops/Mash/RaveShit.wav 10000 10000;
#X obj 164 134 LoopRamp~ 100 4 1;
#X obj 297 25 t b b;
#X obj 653 373 TuioTapeDelay~ 5;
#X obj 684 250 TuioNoiseRhythm~ 4;
#X obj 539 249 TuioMadnessRhythm~ 3;
#X obj 644 154 TuioMadness~ 6;
#X obj 753 156 TuioMadness~ 7;
#X connect 3 0 12 2;
#X connect 3 0 7 1;
#X connect 3 0 8 1;
#X connect 3 0 9 1;
#X connect 3 0 13 0;
#X connect 3 0 14 0;
#X connect 3 0 15 0;
#X connect 3 0 16 0;
#X connect 4 0 11 0;
#X connect 5 0 11 0;
#X connect 6 0 10 0;
#X connect 7 0 2 0;
#X connect 7 1 2 1;
#X connect 8 0 2 0;
#X connect 8 1 2 1;
#X connect 9 0 2 0;
#X connect 9 1 2 1;
#X connect 10 0 7 0;
#X connect 10 0 8 0;
#X connect 10 0 9 0;
#X connect 11 0 0 0;
#X connect 11 1 6 0;
#X connect 12 0 2 0;
#X connect 12 1 2 1;
#X connect 13 0 2 0;
#X connect 13 0 12 0;
#X connect 13 1 12 1;
#X connect 13 1 2 1;
#X connect 14 0 2 0;
#X connect 14 0 12 0;
#X connect 14 1 2 1;
#X connect 14 1 12 1;
#X connect 15 0 12 0;
#X connect 15 0 2 0;
#X connect 15 1 12 1;
#X connect 15 1 2 1;
#X connect 16 0 12 0;
#X connect 16 0 2 0;
#X connect 16 1 12 1;
#X connect 16 1 2 1;
