#N canvas 0 22 450 300 10;
#X obj 107 59 inlet~;
#X obj 171 59 inlet~;
#X obj 268 243 outlet~;
#X obj 205 242 outlet~;
#X obj 28 249 outlet~;
#X obj 81 249 outlet~;
#X obj 275 27 inlet;
#X obj 251 192 *~;
#X obj 211 191 *~;
#X obj 66 189 *~;
#X obj 103 191 *~;
#X obj 318 143 line~;
#X obj 252 143 line~;
#X msg 258 113 \$1 50;
#X msg 320 114 \$1 50;
#X obj 261 74 == 0;
#X obj 317 82 == 1;
#X obj 341 15 loadbang;
#X obj 368 40 f 0;
#X text 73 278 AB Signal Switch - By James Nichols 15-12-08;
#X text 14 7 0 into inlet selects channel A \, 1 selects channel B
\, anything else turns the signal off entirely;
#X connect 0 0 9 0;
#X connect 0 0 8 0;
#X connect 1 0 10 0;
#X connect 1 0 7 0;
#X connect 6 0 15 0;
#X connect 6 0 16 0;
#X connect 7 0 2 0;
#X connect 8 0 3 0;
#X connect 9 0 4 0;
#X connect 10 0 5 0;
#X connect 11 0 8 1;
#X connect 11 0 7 1;
#X connect 12 0 10 1;
#X connect 12 0 9 1;
#X connect 13 0 12 0;
#X connect 14 0 11 0;
#X connect 15 0 13 0;
#X connect 16 0 14 0;
#X connect 17 0 18 0;
#X connect 18 0 15 0;
#X connect 18 0 16 0;
