#N canvas 118 254 584 414 10;
#X obj 58 36 inlet~;
#X obj 131 35 inlet~;
#X obj 58 357 outlet~;
#X obj 129 358 outlet~;
#X obj 48 254 vd~ \$0_del_L;
#X obj 139 255 vd~ \$0_del_R;
#X obj 214 37 inlet;
#X obj 211 83 switch~;
#X obj 122 194 sig~;
#X obj 343 36 inlet;
#X obj 278 36 inlet;
#X obj 22 136 delwrite~ \$0_del_L \$1;
#X obj 172 138 delwrite~ \$0_del_R \$1;
#X obj 362 186 *~ \$2;
#X obj 427 186 *~ \$2;
#X text 180 382 Switchable variable delay line - By James Nichols -
12-15-08;
#X obj 280 237 bp2~ 500 0.2 200;
#X obj 388 238 bp2~ 500 0.2 200;
#X connect 0 0 11 0;
#X connect 1 0 12 0;
#X connect 4 0 2 0;
#X connect 4 0 16 0;
#X connect 5 0 3 0;
#X connect 5 0 17 0;
#X connect 6 0 7 0;
#X connect 8 0 4 0;
#X connect 8 0 5 0;
#X connect 9 0 13 1;
#X connect 9 0 14 1;
#X connect 10 0 8 0;
#X connect 13 0 11 0;
#X connect 14 0 12 0;
#X connect 16 0 13 0;
#X connect 17 0 14 0;
