#N canvas 0 22 484 306 10;
#X obj 59 232 outlet~;
#X obj 167 234 outlet~;
#X obj 63 37 inlet~;
#X obj 170 38 inlet~;
#X obj 232 39 inlet;
#X obj 319 41 inlet;
#X obj 201 81 switch~;
#X text 299 91 Bits;
#X text 311 146 Sample Rate;
#X obj 61 173 decimate~ 1 16;
#X obj 167 173 decimate~ 1 16;
#X obj 253 113 expr (1-$f1) * 12 + 4;
#X obj 286 165 expr (1-$f1) * 0.7 + 0.3;
#X connect 2 0 9 0;
#X connect 3 0 10 0;
#X connect 4 0 6 0;
#X connect 5 0 11 0;
#X connect 5 0 12 0;
#X connect 9 0 0 0;
#X connect 10 0 1 0;
#X connect 11 0 9 2;
#X connect 11 0 10 2;
#X connect 12 0 9 1;
#X connect 12 0 10 1;
