#N canvas 50 144 825 653 10;
#X obj 50 90 +~;
#X obj 179 92 +~;
#X obj 49 48 inlet~;
#X obj 179 50 inlet~;
#X obj 165 573 outlet~;
#X obj 68 573 outlet~;
#X obj 334 47 inlet;
#X obj 389 47 inlet;
#X obj 267 47 inlet;
#X obj 191 141 bp2~ 600 0.3;
#X obj 18 132 bp2~ 600 0.3;
#X obj 93 323 *~ 0;
#X obj 27 326 *~ 0;
#X text 259 26 On/Off;
#X text 319 24 Delay Time;
#X text 398 30 Feedback;
#X obj 79 479 vd~ \$0_Del_L;
#X obj 190 480 vd~ \$0_Del_R;
#X obj 505 118 switch~;
#X msg 507 84 0;
#X obj 505 38 loadbang;
#X obj 210 421 line~;
#X obj 228 369 t f f;
#X obj 222 394 pack f f;
#X obj 253 258 clip 0 1;
#X obj 151 258 clip 0 1.05;
#X obj 242 297 expr ( exp(2 * $f1) - 1) / exp(2);
#X obj 233 330 * 1000;
#X obj 16 176 delwrite~ \$0_Del_L 1000;
#X obj 186 183 delwrite~ \$0_Del_R 1000;
#X connect 0 0 10 0;
#X connect 1 0 9 0;
#X connect 2 0 0 0;
#X connect 3 0 1 0;
#X connect 6 0 24 0;
#X connect 7 0 25 0;
#X connect 8 0 18 0;
#X connect 9 0 29 0;
#X connect 10 0 28 0;
#X connect 11 0 1 1;
#X connect 12 0 0 1;
#X connect 16 0 5 0;
#X connect 16 0 12 0;
#X connect 17 0 4 0;
#X connect 17 0 11 0;
#X connect 19 0 18 0;
#X connect 20 0 19 0;
#X connect 21 0 17 0;
#X connect 21 0 16 0;
#X connect 22 0 23 0;
#X connect 22 1 23 1;
#X connect 23 0 21 0;
#X connect 24 0 26 0;
#X connect 25 0 12 1;
#X connect 25 0 11 1;
#X connect 26 0 27 0;
#X connect 27 0 22 0;
