#N canvas 0 22 450 300 10;
#X obj 73 142 route addObject removeObject updateObject;
#X obj 73 105 nroute \$1 3;
#X obj 73 173 unpack f f;
#X obj 154 173 unpack f f;
#X msg 73 213 1;
#X msg 156 213 0;
#X obj 97 251 outlet;
#X obj 73 71 inlet;
#X floatatom 223 244 5 0 0 0 - - -;
#X connect 0 0 2 0;
#X connect 0 1 3 0;
#X connect 1 0 0 0;
#X connect 2 0 4 0;
#X connect 3 0 5 0;
#X connect 4 0 6 0;
#X connect 4 0 8 0;
#X connect 5 0 6 0;
#X connect 5 0 8 0;
#X connect 7 0 1 0;
