#N canvas 7 111 682 563 10;
#X obj 46 96 inlet;
#X obj 47 238 route addObject removeObject updateObject;
#X obj 158 22 loadbang;
#X obj 158 66 symbol \$2;
#X obj 47 201 nroute \$1 3;
#X obj 303 393 mute~;
#X obj 331 475 outlet~;
#X obj 259 477 outlet~;
#X obj 141 269 unpack f f;
#X obj 222 269 unpack f f f f f;
#X msg 47 309 1;
#X msg 130 309 0;
#X obj 158 44 t b b;
#X obj 292 441 VolumeProfile;
#X obj 63 383 switch~;
#X obj 454 468 outlet~;
#X obj 523 469 outlet~;
#X obj 197 171 tabplay~;
#X obj 257 171 tabplay~;
#X msg 225 116 bang;
#X obj 437 22 table \$0-Loop-L-1;
#X obj 437 43 table \$0-Loop-R-1;
#X obj 434 69 table \$0-Loop-L-2;
#X obj 432 92 table \$0-Loop-R-2;
#X obj 551 22 table \$0-Loop-L-3;
#X obj 550 45 table \$0-Loop-R-3;
#X obj 550 70 table \$0-Loop-L-4;
#X obj 550 90 table \$0-Loop-R-4;
#X obj 353 182 tabplay~;
#X obj 410 182 tabplay~;
#X obj 533 217 tabplay~;
#X obj 593 217 tabplay~;
#X obj 432 326 tabplay~;
#X obj 492 326 tabplay~;
#N canvas 0 22 480 415 LoopLoader1 0;
#X msg 141 111 bang;
#X obj 72 166 getdir;
#X obj 120 243 list2symbol;
#X msg 183 213 symbol /;
#X obj 120 213 pack s s;
#X obj 62 325 print;
#X obj 120 323 soundfiler;
#X obj 267 167 f \$0;
#X obj 123 271 pack s s s;
#X msg 120 292 read -resize \$1 \$2 \$3;
#X obj 150 136 t b b b b;
#X obj 141 49 inlet;
#X obj 153 84 t b s;
#X obj 120 359 outlet;
#X obj 343 354 outlet;
#X obj 248 368 outlet;
#X obj 223 241 t s s;
#X obj 271 241 t s s;
#X msg 255 321 set \$1;
#X msg 336 318 set \$1;
#X msg 254 213 symbol \$1-Loop-L-1;
#X msg 368 213 symbol \$1-Loop-R-1;
#X connect 0 0 10 0;
#X connect 1 0 4 0;
#X connect 2 0 8 0;
#X connect 3 0 2 1;
#X connect 4 0 2 0;
#X connect 6 0 13 0;
#X connect 7 0 21 0;
#X connect 7 0 20 0;
#X connect 8 0 9 0;
#X connect 9 0 5 0;
#X connect 9 0 6 0;
#X connect 10 0 1 0;
#X connect 10 2 3 0;
#X connect 10 3 7 0;
#X connect 11 0 12 0;
#X connect 12 0 0 0;
#X connect 12 1 4 1;
#X connect 16 0 18 0;
#X connect 16 1 8 1;
#X connect 17 0 19 0;
#X connect 17 1 8 2;
#X connect 18 0 15 0;
#X connect 19 0 14 0;
#X connect 20 0 16 0;
#X connect 21 0 17 0;
#X restore 185 143 pd LoopLoader1;
#N canvas 0 22 480 415 LoopLoader2 0;
#X msg 141 111 bang;
#X obj 72 166 getdir;
#X obj 120 243 list2symbol;
#X msg 183 213 symbol /;
#X obj 120 213 pack s s;
#X obj 62 325 print;
#X obj 120 323 soundfiler;
#X obj 267 167 f \$0;
#X obj 123 271 pack s s s;
#X msg 120 292 read -resize \$1 \$2 \$3;
#X obj 150 136 t b b b b;
#X obj 141 49 inlet;
#X obj 153 84 t b s;
#X obj 120 359 outlet;
#X obj 343 354 outlet;
#X obj 248 368 outlet;
#X obj 223 241 t s s;
#X obj 271 241 t s s;
#X msg 255 321 set \$1;
#X msg 336 318 set \$1;
#X msg 254 213 symbol \$1-Loop-L-2;
#X msg 368 213 symbol \$1-Loop-R-2;
#X connect 0 0 10 0;
#X connect 1 0 4 0;
#X connect 2 0 8 0;
#X connect 3 0 2 1;
#X connect 4 0 2 0;
#X connect 6 0 13 0;
#X connect 7 0 21 0;
#X connect 7 0 20 0;
#X connect 8 0 9 0;
#X connect 9 0 5 0;
#X connect 9 0 6 0;
#X connect 10 0 1 0;
#X connect 10 2 3 0;
#X connect 10 3 7 0;
#X connect 11 0 12 0;
#X connect 12 0 0 0;
#X connect 12 1 4 1;
#X connect 16 0 18 0;
#X connect 16 1 8 1;
#X connect 17 0 19 0;
#X connect 17 1 8 2;
#X connect 18 0 15 0;
#X connect 19 0 14 0;
#X connect 20 0 16 0;
#X connect 21 0 17 0;
#X restore 348 154 pd LoopLoader2;
#N canvas 0 22 480 415 LoopLoader3 0;
#X msg 141 111 bang;
#X obj 72 166 getdir;
#X obj 120 243 list2symbol;
#X msg 183 213 symbol /;
#X obj 120 213 pack s s;
#X obj 62 325 print;
#X obj 120 323 soundfiler;
#X obj 267 167 f \$0;
#X obj 123 271 pack s s s;
#X msg 120 292 read -resize \$1 \$2 \$3;
#X obj 150 136 t b b b b;
#X obj 141 49 inlet;
#X obj 153 84 t b s;
#X obj 120 359 outlet;
#X obj 343 354 outlet;
#X obj 248 368 outlet;
#X obj 223 241 t s s;
#X obj 271 241 t s s;
#X msg 255 321 set \$1;
#X msg 336 318 set \$1;
#X msg 254 213 symbol \$1-Loop-L-3;
#X msg 368 213 symbol \$1-Loop-R-3;
#X connect 0 0 10 0;
#X connect 1 0 4 0;
#X connect 2 0 8 0;
#X connect 3 0 2 1;
#X connect 4 0 2 0;
#X connect 6 0 13 0;
#X connect 7 0 21 0;
#X connect 7 0 20 0;
#X connect 8 0 9 0;
#X connect 9 0 5 0;
#X connect 9 0 6 0;
#X connect 10 0 1 0;
#X connect 10 2 3 0;
#X connect 10 3 7 0;
#X connect 11 0 12 0;
#X connect 12 0 0 0;
#X connect 12 1 4 1;
#X connect 16 0 18 0;
#X connect 16 1 8 1;
#X connect 17 0 19 0;
#X connect 17 1 8 2;
#X connect 18 0 15 0;
#X connect 19 0 14 0;
#X connect 20 0 16 0;
#X connect 21 0 17 0;
#X restore 511 192 pd LoopLoader3;
#N canvas 0 22 556 451 LoopLoader4 0;
#X msg 141 111 bang;
#X obj 72 166 getdir;
#X obj 120 243 list2symbol;
#X msg 183 213 symbol /;
#X obj 120 213 pack s s;
#X obj 62 325 print;
#X obj 120 323 soundfiler;
#X obj 267 167 f \$0;
#X obj 123 271 pack s s s;
#X msg 120 292 read -resize \$1 \$2 \$3;
#X obj 150 136 t b b b b;
#X obj 141 49 inlet;
#X obj 153 84 t b s;
#X obj 120 359 outlet;
#X obj 343 354 outlet;
#X obj 248 368 outlet;
#X obj 223 241 t s s;
#X obj 271 241 t s s;
#X msg 255 321 set \$1;
#X msg 336 318 set \$1;
#X msg 254 213 symbol \$1-Loop-L-4;
#X msg 368 213 symbol \$1-Loop-R-4;
#X connect 0 0 10 0;
#X connect 1 0 4 0;
#X connect 2 0 8 0;
#X connect 3 0 2 1;
#X connect 4 0 2 0;
#X connect 6 0 13 0;
#X connect 7 0 21 0;
#X connect 7 0 20 0;
#X connect 8 0 9 0;
#X connect 9 0 5 0;
#X connect 9 0 6 0;
#X connect 10 0 1 0;
#X connect 10 2 3 0;
#X connect 10 3 7 0;
#X connect 11 0 12 0;
#X connect 12 0 0 0;
#X connect 12 1 4 1;
#X connect 16 0 18 0;
#X connect 16 1 8 1;
#X connect 17 0 19 0;
#X connect 17 1 8 2;
#X connect 18 0 15 0;
#X connect 19 0 14 0;
#X connect 20 0 16 0;
#X connect 21 0 17 0;
#X restore 503 298 pd LoopLoader4;
#X obj 347 129 symbol \$3;
#X obj 495 275 symbol \$5;
#X obj 508 168 symbol \$4;
#X obj 299 362 FilterProfile \$6 \$7;
#X msg 316 106 bang;
#X msg 444 272 bang;
#X msg 507 145 bang;
#X obj 189 311 AngleNormalise;
#X obj 262 44 moses 0.125;
#X obj 331 67 moses 0.375;
#X obj 468 107 moses 0.625;
#X obj 416 218 moses 0.875;
#X obj 186 382 f;
#X msg 134 371 bang;
#X text 163 522 MultiSampler - reacts to TUIO messages - By James Nichols
3/12/10;
#X msg 357 106 1e+09;
#X msg 545 144 1e+09;
#X msg 263 115 1e+09;
#X msg 556 256 1e+09;
#X floatatom 191 407 5 0 0 0 - - -;
#X floatatom 138 421 5 0 0 0 - - -;
#X obj 27 270 unpack f f f f f;
#X connect 0 0 4 0;
#X connect 1 0 59 0;
#X connect 1 1 8 0;
#X connect 1 2 9 0;
#X connect 2 0 12 0;
#X connect 3 0 34 0;
#X connect 4 0 1 0;
#X connect 5 0 13 0;
#X connect 5 0 15 0;
#X connect 5 1 13 1;
#X connect 5 1 16 0;
#X connect 8 0 11 0;
#X connect 9 2 41 2;
#X connect 9 3 13 2;
#X connect 9 4 45 0;
#X connect 10 0 5 2;
#X connect 10 0 14 0;
#X connect 10 0 51 0;
#X connect 10 0 58 0;
#X connect 11 0 5 2;
#X connect 11 0 14 0;
#X connect 11 0 58 0;
#X connect 12 0 3 0;
#X connect 12 0 38 0;
#X connect 12 0 40 0;
#X connect 12 0 39 0;
#X connect 12 1 11 0;
#X connect 13 0 7 0;
#X connect 13 1 6 0;
#X connect 17 0 41 0;
#X connect 18 0 41 1;
#X connect 19 0 17 0;
#X connect 19 0 18 0;
#X connect 28 0 41 0;
#X connect 29 0 41 1;
#X connect 30 0 41 0;
#X connect 31 0 41 1;
#X connect 32 0 41 0;
#X connect 33 0 41 1;
#X connect 34 1 17 0;
#X connect 34 2 18 0;
#X connect 35 1 28 0;
#X connect 35 2 29 0;
#X connect 36 1 30 0;
#X connect 36 2 31 0;
#X connect 37 1 32 0;
#X connect 37 2 33 0;
#X connect 38 0 35 0;
#X connect 39 0 37 0;
#X connect 40 0 36 0;
#X connect 41 0 5 0;
#X connect 41 1 5 1;
#X connect 42 0 28 0;
#X connect 42 0 29 0;
#X connect 43 0 32 0;
#X connect 43 0 33 0;
#X connect 44 0 30 0;
#X connect 44 0 31 0;
#X connect 45 0 50 1;
#X connect 46 0 19 0;
#X connect 46 0 53 0;
#X connect 46 0 54 0;
#X connect 46 0 56 0;
#X connect 46 1 47 0;
#X connect 47 0 42 0;
#X connect 47 0 55 0;
#X connect 47 0 54 0;
#X connect 47 0 56 0;
#X connect 47 1 48 0;
#X connect 48 0 44 0;
#X connect 48 0 53 0;
#X connect 48 0 55 0;
#X connect 48 0 56 0;
#X connect 48 1 49 0;
#X connect 49 0 43 0;
#X connect 49 0 54 0;
#X connect 49 0 53 0;
#X connect 49 0 55 0;
#X connect 49 1 19 0;
#X connect 49 1 56 0;
#X connect 50 0 46 0;
#X connect 50 0 57 0;
#X connect 51 0 50 0;
#X connect 53 0 28 0;
#X connect 53 0 29 0;
#X connect 54 0 30 0;
#X connect 54 0 31 0;
#X connect 55 0 17 0;
#X connect 55 0 18 0;
#X connect 56 0 32 0;
#X connect 56 0 33 0;
#X connect 59 0 10 0;
#X connect 59 4 45 0;
#X coords 0 0 1 1 260 100 0;
