#N canvas 740 124 647 529 10;
#X obj 28 23 inlet;
#X obj 28 126 route addObject removeObject updateObject;
#X obj 28 89 nroute \$1 3;
#X obj 246 410 mute~;
#X obj 278 480 outlet~;
#X obj 216 476 outlet~;
#X obj 28 157 unpack f f;
#X obj 109 157 unpack f f;
#X obj 190 157 unpack f f f f f;
#X msg 28 197 1;
#X msg 111 197 0;
#X obj 224 458 VolumeProfile;
#X obj 26 241 switch~;
#X obj 236 179 * 400;
#X obj 236 201 + 100;
#X obj 236 222 sig~;
#X obj 339 69 AngleRectify;
#X obj 357 303 + 30;
#X obj 357 271 * 4000;
#X obj 365 177 phasor~;
#X obj 366 125 * 10;
#X obj 366 151 sig~;
#X obj 238 251 *~;
#X obj 236 279 phasor~ 440;
#X obj 315 248 * 1;
#X obj 250 360 bp2~ 400 0.7 200;
#X obj 366 451 outlet~;
#X obj 435 453 outlet~;
#X connect 0 0 2 0;
#X connect 1 0 6 0;
#X connect 1 1 7 0;
#X connect 1 2 8 0;
#X connect 2 0 1 0;
#X connect 3 0 11 0;
#X connect 3 0 26 0;
#X connect 3 1 11 1;
#X connect 3 1 27 0;
#X connect 6 0 9 0;
#X connect 7 0 10 0;
#X connect 8 0 9 0;
#X connect 8 2 13 0;
#X connect 8 3 24 0;
#X connect 8 4 16 0;
#X connect 9 0 3 2;
#X connect 9 0 12 0;
#X connect 10 0 3 2;
#X connect 10 0 12 0;
#X connect 11 0 5 0;
#X connect 11 1 4 0;
#X connect 13 0 14 0;
#X connect 14 0 15 0;
#X connect 15 0 22 0;
#X connect 16 0 18 0;
#X connect 16 0 20 0;
#X connect 18 0 17 0;
#X connect 19 0 22 1;
#X connect 20 0 21 0;
#X connect 21 0 19 0;
#X connect 22 0 23 0;
#X connect 23 0 25 0;
#X connect 24 0 11 2;
#X connect 25 0 3 0;
#X connect 25 0 3 1;
