#N canvas 678 193 647 529 10;
#X obj 28 23 inlet;
#X obj 28 126 route addObject removeObject updateObject;
#X obj 28 89 nroute \$1 3;
#X obj 243 397 mute~;
#X obj 278 480 outlet~;
#X obj 216 476 outlet~;
#X obj 28 157 unpack f f;
#X obj 109 157 unpack f f;
#X obj 190 157 unpack f f f f f;
#X msg 28 197 1;
#X msg 111 197 0;
#X obj 236 443 VolumeProfile;
#X obj 28 259 switch~;
#X obj 323 229 AngleRectify;
#X obj 182 235 noise~;
#X obj 235 226 + 50;
#X obj 241 44 loadbang;
#X floatatom 365 175 5 0 0 0 - - -;
#X floatatom 411 208 5 0 0 0 - - -;
#X obj 231 195 * 2000;
#X obj 203 285 bp2~ 400 3 200;
#X obj 338 311 phasor~;
#X obj 337 289 sig~;
#X obj 252 315 *~;
#X obj 321 261 * 20;
#X obj 351 484 outlet~;
#X obj 423 482 outlet~;
#X obj 240 370 *~ 2;
#X connect 0 0 2 0;
#X connect 1 0 6 0;
#X connect 1 1 7 0;
#X connect 1 2 8 0;
#X connect 2 0 1 0;
#X connect 3 0 11 0;
#X connect 3 1 11 1;
#X connect 6 0 9 0;
#X connect 7 0 10 0;
#X connect 8 0 9 0;
#X connect 8 2 19 0;
#X connect 8 3 11 2;
#X connect 8 4 13 0;
#X connect 9 0 12 0;
#X connect 9 0 3 2;
#X connect 10 0 12 0;
#X connect 10 0 3 2;
#X connect 11 0 5 0;
#X connect 11 0 25 0;
#X connect 11 1 4 0;
#X connect 11 1 26 0;
#X connect 13 0 24 0;
#X connect 14 0 20 0;
#X connect 15 0 17 0;
#X connect 15 0 20 1;
#X connect 16 0 10 0;
#X connect 19 0 15 0;
#X connect 20 0 23 0;
#X connect 21 0 23 1;
#X connect 22 0 21 0;
#X connect 23 0 27 0;
#X connect 24 0 22 0;
#X connect 27 0 3 0;
#X connect 27 0 3 1;
