#N canvas 7 111 682 563 10;
#X obj 46 96 inlet;
#X obj 47 238 route addObject removeObject updateObject;
#X obj 387 22 table \$0-Loop-L;
#X obj 387 53 table \$0-Loop-R;
#N canvas 0 22 480 415 LoopLoader 1;
#X msg 141 111 bang;
#X obj 72 166 getdir;
#X obj 120 243 list2symbol;
#X msg 183 213 symbol /;
#X obj 120 213 pack s s;
#X obj 62 325 print;
#X obj 120 323 soundfiler;
#X obj 267 167 f \$0;
#X msg 368 213 symbol \$1-Loop-R;
#X obj 123 271 pack s s s;
#X msg 254 213 symbol \$1-Loop-L;
#X msg 120 292 read -resize \$1 \$2 \$3;
#X obj 150 136 t b b b b;
#X obj 141 49 inlet;
#X obj 153 84 t b s;
#X obj 120 359 outlet;
#X obj 343 354 outlet;
#X obj 248 368 outlet;
#X obj 223 241 t s s;
#X obj 271 241 t s s;
#X msg 255 321 set \$1;
#X msg 336 318 set \$1;
#X connect 0 0 12 0;
#X connect 1 0 4 0;
#X connect 2 0 9 0;
#X connect 3 0 2 1;
#X connect 4 0 2 0;
#X connect 6 0 15 0;
#X connect 7 0 8 0;
#X connect 7 0 10 0;
#X connect 8 0 19 0;
#X connect 9 0 11 0;
#X connect 10 0 18 0;
#X connect 11 0 5 0;
#X connect 11 0 6 0;
#X connect 12 0 1 0;
#X connect 12 2 3 0;
#X connect 12 3 7 0;
#X connect 13 0 14 0;
#X connect 14 0 0 0;
#X connect 14 1 4 1;
#X connect 18 0 20 0;
#X connect 18 1 9 1;
#X connect 19 0 21 0;
#X connect 19 1 9 2;
#X connect 20 0 17 0;
#X connect 21 0 16 0;
#X restore 287 104 pd LoopLoader;
#X obj 287 22 loadbang;
#X obj 287 66 symbol \$2;
#X obj 47 201 nroute \$1 3;
#X obj 303 393 mute~;
#X obj 331 475 outlet~;
#X obj 259 477 outlet~;
#X obj 47 269 unpack f f;
#X obj 128 269 unpack f f;
#X obj 209 269 unpack f f f f f;
#X msg 47 309 1;
#X msg 130 309 0;
#X obj 287 44 t b b;
#X obj 292 441 VolumeProfile;
#X obj 63 383 switch~;
#X obj 454 468 outlet~;
#X obj 523 469 outlet~;
#X obj 423 311 FilterProfile \$3 \$4;
#X obj 331 314 AngleRectify;
#X obj 391 351 DigitiserProfile;
#X obj 249 192 tabplay~;
#X obj 309 192 tabplay~;
#X msg 152 127 bang;
#X text 163 522 Sampler - reacts to TUIO messages - By James Nichols
3/12/10;
#X connect 0 0 7 0;
#X connect 1 0 11 0;
#X connect 1 1 12 0;
#X connect 1 2 13 0;
#X connect 4 1 24 0;
#X connect 4 2 25 0;
#X connect 5 0 16 0;
#X connect 6 0 4 0;
#X connect 7 0 1 0;
#X connect 8 0 17 0;
#X connect 8 0 19 0;
#X connect 8 1 17 1;
#X connect 8 1 20 0;
#X connect 11 0 14 0;
#X connect 12 0 15 0;
#X connect 13 2 21 2;
#X connect 13 3 17 2;
#X connect 13 4 22 0;
#X connect 14 0 8 2;
#X connect 14 0 18 0;
#X connect 14 0 26 0;
#X connect 15 0 8 2;
#X connect 15 0 18 0;
#X connect 16 0 6 0;
#X connect 16 1 15 0;
#X connect 17 0 10 0;
#X connect 17 1 9 0;
#X connect 21 0 23 0;
#X connect 21 1 23 1;
#X connect 22 0 23 2;
#X connect 23 0 8 0;
#X connect 23 1 8 1;
#X connect 24 0 21 0;
#X connect 25 0 21 1;
#X connect 26 0 24 0;
#X connect 26 0 25 0;
#X coords 0 0 1 1 260 100 0;
