#N canvas 528 108 697 574 10;
#X obj 85 61 inlet~;
#X obj 149 61 inlet~;
#X obj 84 444 outlet~;
#X obj 152 444 outlet~;
#X obj 411 63 inlet;
#X obj 412 136 route addObject removeObject updateObject;
#X obj 412 99 nroute \$1 3;
#X obj 412 167 unpack f f;
#X obj 493 167 unpack f f;
#X obj 574 167 unpack f f f f f;
#X msg 412 207 1;
#X msg 467 208 0;
#X obj 383 335 AngleRectify;
#X text 270 474 TapeDelay - Reacts to TUIO messages - By James Nichols
20-12-08;
#X obj 119 399 VolumeProfile;
#X obj 107 326 TapeDelay~;
#X connect 0 0 15 0;
#X connect 1 0 15 1;
#X connect 4 0 6 0;
#X connect 5 0 7 0;
#X connect 5 1 8 0;
#X connect 5 2 9 0;
#X connect 6 0 5 0;
#X connect 7 0 10 0;
#X connect 8 0 11 0;
#X connect 9 0 10 0;
#X connect 9 2 15 3;
#X connect 9 3 14 2;
#X connect 9 4 12 0;
#X connect 10 0 15 2;
#X connect 11 0 15 2;
#X connect 12 0 15 4;
#X connect 14 0 2 0;
#X connect 14 1 3 0;
#X connect 15 0 14 0;
#X connect 15 1 14 1;
