#N canvas 652 190 658 579 10;
#X obj 28 23 inlet;
#X obj 28 126 route addObject removeObject updateObject;
#X obj 28 89 nroute \$1 3;
#X obj 241 387 mute~;
#X obj 275 495 outlet~;
#X obj 213 491 outlet~;
#X obj 28 157 unpack f f;
#X obj 109 157 unpack f f;
#X obj 190 157 unpack f f f f f;
#X msg 28 197 1;
#X msg 111 197 0;
#X obj 28 259 switch~;
#X obj 229 178 * 400;
#X obj 229 202 + 100;
#X obj 234 273 sig~;
#X obj 233 294 phasor~ 440;
#X obj 388 281 AngleRectify;
#X obj 236 358 bp2~ 400 1.2 200;
#X obj 388 353 + 30;
#X obj 388 321 * 4000;
#X obj 180 210 ftom;
#X obj 178 236 int;
#X obj 177 260 mtof;
#X obj 312 263 * 0.8;
#X obj 284 65 loadbang;
#X obj 400 484 outlet~;
#X obj 460 486 outlet~;
#X obj 243 447 VolumeProfile;
#X connect 0 0 2 0;
#X connect 1 0 6 0;
#X connect 1 1 7 0;
#X connect 1 2 8 0;
#X connect 2 0 1 0;
#X connect 3 0 27 0;
#X connect 3 0 25 0;
#X connect 3 1 27 1;
#X connect 3 1 26 0;
#X connect 6 0 9 0;
#X connect 7 0 10 0;
#X connect 8 0 9 0;
#X connect 8 2 12 0;
#X connect 8 3 23 0;
#X connect 8 4 16 0;
#X connect 9 0 11 0;
#X connect 9 0 3 2;
#X connect 10 0 3 2;
#X connect 10 0 11 0;
#X connect 12 0 13 0;
#X connect 13 0 20 0;
#X connect 14 0 15 0;
#X connect 15 0 17 0;
#X connect 16 0 19 0;
#X connect 17 0 3 0;
#X connect 17 0 3 1;
#X connect 18 0 17 1;
#X connect 19 0 18 0;
#X connect 20 0 21 0;
#X connect 21 0 22 0;
#X connect 22 0 14 0;
#X connect 23 0 27 2;
#X connect 24 0 10 0;
#X connect 27 0 5 0;
#X connect 27 1 4 0;
