#N canvas 0 22 605 391 10;
#X obj 102 46 inlet~;
#X obj 153 46 inlet~;
#X obj 236 36 inlet;
#X obj 115 261 *~;
#X obj 236 210 line~;
#X obj 196 362 outlet~;
#X obj 52 262 *~;
#X obj 133 363 outlet~;
#X msg 236 186 \$1 10;
#X text 261 352 DubTable Volume Profiler - By James Nichols 5/12/08
;
#X obj 234 160 dbtorms;
#X obj 203 125 * 50;
#X obj 204 145 + 60;
#X obj 296 161 f 1;
#X obj 338 67 - 0.5;
#X obj 336 98 abs;
#X obj 337 154 / 0.5;
#X floatatom 374 162 5 0 0 0 - - -;
#X obj 336 127 expr 0.5 - $f1;
#X obj 239 104 + 0.3;
#X obj 236 74 moses 0.3;
#X connect 0 0 6 0;
#X connect 1 0 3 0;
#X connect 2 0 14 0;
#X connect 3 0 5 0;
#X connect 4 0 3 1;
#X connect 4 0 6 1;
#X connect 6 0 7 0;
#X connect 8 0 4 0;
#X connect 10 0 8 0;
#X connect 11 0 12 0;
#X connect 12 0 10 0;
#X connect 13 0 8 0;
#X connect 14 0 15 0;
#X connect 15 0 18 0;
#X connect 16 0 17 0;
#X connect 16 0 20 0;
#X connect 18 0 16 0;
#X connect 19 0 11 0;
#X connect 20 0 19 0;
#X connect 20 1 13 0;
